<mxfile host="app.diagrams.net" modified="2021-08-24T08:15:30.756Z" agent="5.0 (Windows NT 10.0; Win64; x64) AppleWebKit/537.36 (KHTML, like Gecko) Chrome/92.0.4515.159 Safari/537.36" etag="sbqY7L9P3oFf0ADJKr9d" version="14.9.8" type="github">
  <diagram id="49S3HgyZ0l6TdvTboECl" name="Page-1">
    <mxGraphModel dx="1209" dy="626" grid="1" gridSize="10" guides="1" tooltips="1" connect="1" arrows="1" fold="1" page="1" pageScale="1" pageWidth="850" pageHeight="1100" math="0" shadow="0">
      <root>
        <mxCell id="0" />
        <mxCell id="1" parent="0" />
        <mxCell id="eAdFM__d5VqfeObvWD1n-1" value="development" style="rounded=0;whiteSpace=wrap;html=1;" vertex="1" parent="1">
          <mxGeometry x="50" y="270" width="260" height="70" as="geometry" />
        </mxCell>
        <mxCell id="eAdFM__d5VqfeObvWD1n-3" value="MASTER" style="rounded=1;whiteSpace=wrap;html=1;" vertex="1" parent="1">
          <mxGeometry x="520" y="130" width="120" height="60" as="geometry" />
        </mxCell>
        <mxCell id="eAdFM__d5VqfeObvWD1n-4" value="PRODCUT" style="rounded=1;whiteSpace=wrap;html=1;" vertex="1" parent="1">
          <mxGeometry x="520" y="275" width="120" height="60" as="geometry" />
        </mxCell>
        <mxCell id="eAdFM__d5VqfeObvWD1n-5" value="PAYMENT" style="rounded=1;whiteSpace=wrap;html=1;" vertex="1" parent="1">
          <mxGeometry x="520" y="430" width="120" height="60" as="geometry" />
        </mxCell>
        <mxCell id="eAdFM__d5VqfeObvWD1n-6" value="" style="endArrow=classic;html=1;exitX=1;exitY=0.571;exitDx=0;exitDy=0;exitPerimeter=0;entryX=0;entryY=0.75;entryDx=0;entryDy=0;" edge="1" parent="1" source="eAdFM__d5VqfeObvWD1n-1" target="eAdFM__d5VqfeObvWD1n-3">
          <mxGeometry width="50" height="50" relative="1" as="geometry">
            <mxPoint x="320" y="310" as="sourcePoint" />
            <mxPoint x="360" y="260" as="targetPoint" />
          </mxGeometry>
        </mxCell>
        <mxCell id="eAdFM__d5VqfeObvWD1n-8" value="" style="endArrow=classic;html=1;entryX=0;entryY=0.5;entryDx=0;entryDy=0;" edge="1" parent="1" target="eAdFM__d5VqfeObvWD1n-4">
          <mxGeometry width="50" height="50" relative="1" as="geometry">
            <mxPoint x="310" y="310" as="sourcePoint" />
            <mxPoint x="530" y="185" as="targetPoint" />
          </mxGeometry>
        </mxCell>
        <mxCell id="eAdFM__d5VqfeObvWD1n-9" value="" style="endArrow=classic;html=1;entryX=-0.001;entryY=0.376;entryDx=0;entryDy=0;entryPerimeter=0;" edge="1" parent="1" target="eAdFM__d5VqfeObvWD1n-5">
          <mxGeometry width="50" height="50" relative="1" as="geometry">
            <mxPoint x="310" y="310" as="sourcePoint" />
            <mxPoint x="530" y="185" as="targetPoint" />
          </mxGeometry>
        </mxCell>
        <mxCell id="eAdFM__d5VqfeObvWD1n-11" value="" style="shape=requiredInterface;html=1;verticalLabelPosition=bottom;" vertex="1" parent="1">
          <mxGeometry x="640" y="170" width="80" height="145" as="geometry" />
        </mxCell>
        <mxCell id="eAdFM__d5VqfeObvWD1n-12" value="" style="shape=requiredInterface;html=1;verticalLabelPosition=bottom;" vertex="1" parent="1">
          <mxGeometry x="640" y="150" width="150" height="340" as="geometry" />
        </mxCell>
        <mxCell id="eAdFM__d5VqfeObvWD1n-13" value="MERGE" style="text;html=1;strokeColor=none;fillColor=none;align=center;verticalAlign=middle;whiteSpace=wrap;rounded=0;" vertex="1" parent="1">
          <mxGeometry x="670" y="130" width="40" height="20" as="geometry" />
        </mxCell>
        <mxCell id="eAdFM__d5VqfeObvWD1n-14" value="MERGE" style="text;html=1;strokeColor=none;fillColor=none;align=center;verticalAlign=middle;whiteSpace=wrap;rounded=0;" vertex="1" parent="1">
          <mxGeometry x="660" y="450" width="40" height="20" as="geometry" />
        </mxCell>
        <mxCell id="eAdFM__d5VqfeObvWD1n-15" style="edgeStyle=orthogonalEdgeStyle;rounded=0;orthogonalLoop=1;jettySize=auto;html=1;exitX=0.5;exitY=1;exitDx=0;exitDy=0;" edge="1" parent="1" source="eAdFM__d5VqfeObvWD1n-13" target="eAdFM__d5VqfeObvWD1n-13">
          <mxGeometry relative="1" as="geometry" />
        </mxCell>
      </root>
    </mxGraphModel>
  </diagram>
</mxfile>
